<svg xmlns="http://www.w3.org/2000/svg" xml:space="preserve" style="fill-rule:evenodd;clip-rule:evenodd;stroke-linejoin:round;stroke-miterlimit:2" viewBox="0 0 110 111"><circle cx="55.2" cy="55.4" r="55.4" style="fill:#fff"/><path d="M55.2 0a55.4 55.4 0 1 1 0 110.8A55.4 55.4 0 0 1 55.2 0Zm0 1.3a54 54 0 1 1 0 108.1 54 54 0 0 1 0-108Z" style="fill:#595f67"/><path d="M600 275c-24.6.6-45 23.2-45.3 45.4v28.3a44.2 44.2 0 0 0-30.3-13.2 48 48 0 0 0-45.3 45.4l.4 121.3c-6.2-10.7-20.4-15.7-30.6-15.5-22.5.2-45 23.1-45.4 45.3v219.2c0 52 29.9 95.8 69 126 39 30.4 87.4 47.8 127.5 47.8 40 0 88.4-17.5 127.5-47.7 39.1-30.3 69-74.1 69-126.1V456.4c0-25.7-25.4-37.4-45.4-37.8a37 37 0 0 0-29.5 12.6l-.7-50.3a45 45 0 0 0-45.3-45.4c-12 .3-21.7 5-30.3 14.3v-29.4a48 48 0 0 0-45.3-45.3Zm0 15.2c16 .3 30 15 30.2 30.2.6 93 0 185.8 0 279.6a8 8 0 0 0 7.6 7.7c4 0 7.6-3.7 7.5-7.7.2-74.4-.2-149.3 0-223.4.6-14.4 19.4-25.8 30.3-26 15.2.4 30 13.1 30.2 30.2V600a8 8 0 0 0 7.6 7.7c4 0 7.6-3.7 7.5-7.7V458.8c.5-15.3 18.6-24.5 30.3-25 13.9.2 30.3 9 30.2 22.6v294.8c0 46.2-26.8 85.7-63.3 114-36.5 28.3-82.6 44.7-118 44.7-35.6 0-81.7-16.4-118.2-44.7-36.5-28.3-63.3-67.8-63.3-114V532a31 31 0 0 1 30.3-30.2c15.2.7 30.1 17.9 30.2 32.6v156.3c0 3.7 3.1 7.2 6.8 7.5 37 3.7 63.2 13 80.3 30 17.2 17.2 26.3 43 26.3 83.4-.1 4 3.5 7.7 7.5 7.7s7.6-3.7 7.6-7.7c0-42.7-9.8-73.3-30.5-94-19.3-19.3-47.8-28.7-82.9-33V380.9a30 30 0 0 1 30.2-30.3c14.7.4 30 13 30.3 29V600c0 4 3.5 7.7 7.5 7.7s7.6-3.7 7.6-7.7V320.4c-.3-15.8 14.5-29.6 30.2-30.2Z" style="fill:#595f67;fill-rule:nonzero" transform="matrix(.1 0 0 .1 -3.3 -2.8)"/></svg>