<?xml version="1.0" encoding="UTF-8" standalone="no"?>
<!DOCTYPE svg PUBLIC "-//W3C//DTD SVG 1.1//EN" "http://www.w3.org/Graphics/SVG/1.1/DTD/svg11.dtd">
<svg width="100%" height="100%" viewBox="0 0 150 150" version="1.1" xmlns="http://www.w3.org/2000/svg" xmlns:xlink="http://www.w3.org/1999/xlink" xml:space="preserve" xmlns:serif="http://www.serif.com/" style="fill-rule:evenodd;clip-rule:evenodd;stroke-linejoin:round;stroke-miterlimit:2;">
    <g transform="matrix(1,0,0,1,25,25)">
        <g>
            <path d="M97.5,83.1C97.1,83.1 96.7,83 96.5,82.7L87.3,73.5C85.8,72 84.8,70 84.5,67.8L82.9,55C82.8,54.1 82.4,53.3 81.7,52.6L69.9,41.7C69.2,41.1 68.4,40.7 67.5,40.7L48,39.8C45.8,39.7 44,41.4 43.9,43.5C43.8,45.7 45.5,47.6 47.6,47.7L59.3,48.4C60.6,48.5 61.7,49 62.6,50C63.4,51 63.9,52.2 63.8,53.4C63.8,53.6 63.7,53.8 63.7,53.9C63.7,53.9 62.4,56.6 62.2,60.4C61.9,65.4 63.4,69.9 66.8,73.8C67.3,74.4 67.3,75.3 66.7,75.9C66.1,76.4 65.2,76.4 64.6,75.8C59.7,70.2 59,64.2 59.3,60.1C59.6,56.5 60.6,53.8 61,52.9C61,52.5 60.8,52.1 60.6,51.8C60.3,51.4 59.8,51.2 59.4,51.2L47.7,50.5C43.9,50.3 41,47 41.2,43.2C41.4,39.5 44.6,36.5 48.4,36.7L67.8,37.5C69.4,37.6 70.9,38.2 72.1,39.3L83.9,50.2C85.1,51.3 85.8,52.8 86,54.4L87.6,67.2C87.8,68.7 88.5,70.1 89.5,71.2L98.7,80.4C99.3,81 99.3,81.9 98.7,82.5C98.3,82.9 97.9,83.1 97.5,83.1Z" style="fill:white;fill-rule:nonzero;"/>
            <path d="M44.6,93.9C43.1,93.9 41.6,93.3 40.5,92.2C38.4,90.1 38.2,86.6 40.2,84.3L48.9,74.4C49.4,73.8 50.4,73.7 51,74.3C51.6,74.8 51.7,75.8 51.1,76.4L42.4,86.3C41.4,87.4 41.5,89.1 42.5,90.2C43.6,91.3 45.3,91.3 46.4,90.3L56.6,80.8C57.6,79.9 58.3,78.6 58.6,77.2L60.2,68.9C60.4,68.1 61.1,67.6 61.9,67.7C62.7,67.9 63.2,68.6 63.1,69.4L61.5,77.7C61.1,79.7 60.1,81.5 58.6,82.9L48.4,92.4C47.4,93.3 46,93.9 44.6,93.9Z" style="fill:white;fill-rule:nonzero;"/>
            <path d="M36.2,89.2C34.6,89.2 33.1,88.6 31.9,87.4C29.5,85 29.5,81.1 31.9,78.7L43.2,67.4C43.8,66.8 44.7,66.8 45.3,67.4C45.9,68 45.9,68.9 45.3,69.5L34,80.8C32.8,82 32.8,84.1 34,85.3C35.2,86.5 37.3,86.5 38.5,85.3L49.8,74C50.4,73.4 51.3,73.4 51.9,74C52.5,74.6 52.5,75.5 51.9,76.1L40.6,87.4C39.4,88.6 37.8,89.2 36.2,89.2Z" style="fill:white;fill-rule:nonzero;"/>
            <path d="M31.1,69.8C30.7,69.8 30.3,69.7 30.1,69.4C29.5,68.8 29.5,67.9 30.1,67.3L36.6,60.8C37.2,60.2 38.1,60.2 38.7,60.8C39.3,61.4 39.3,62.3 38.7,62.9L32.2,69.4C31.9,69.7 31.5,69.8 31.1,69.8Z" style="fill:white;fill-rule:nonzero;"/>
            <path d="M29.6,82.6C28,82.6 26.4,82 25.3,80.8C24.2,79.7 23.6,78.3 23.5,76.9C23.5,76.1 24.1,75.4 24.9,75.3C25.7,75.3 26.4,75.9 26.5,76.7C26.5,77.5 26.9,78.2 27.4,78.8C28,79.4 28.8,79.7 29.7,79.7C30.6,79.7 31.4,79.4 32,78.8L43.3,67.5C43.9,66.9 44.8,66.9 45.4,67.5C46,68.1 46,69 45.4,69.6L33.9,80.8C32.8,81.9 31.2,82.6 29.6,82.6Z" style="fill:white;fill-rule:nonzero;"/>
            <path d="M28.3,77.8L16.9,77.8C13.9,77.8 11.4,75.4 11.4,72.3L11.4,71.3C11.4,68.3 13.8,65.8 16.9,65.8L28.3,65.8C31.3,65.8 33.8,68.2 33.8,71.3L33.8,72.3C33.8,75.4 31.3,77.8 28.3,77.8ZM16.9,68.8C15.5,68.8 14.4,69.9 14.4,71.3L14.4,72.3C14.4,73.7 15.5,74.8 16.9,74.8L28.3,74.8C29.7,74.8 30.8,73.7 30.8,72.3L30.8,71.3C30.8,69.9 29.7,68.8 28.3,68.8L16.9,68.8Z" style="fill:white;fill-rule:nonzero;"/>
            <path d="M28,68.8L13.2,68.8C10.2,68.8 7.7,66.4 7.7,63.3L7.7,62.3C7.7,59.3 10.1,56.8 13.2,56.8L28,56.8C31,56.8 33.5,59.2 33.5,62.3L33.5,63.3C33.5,66.3 31,68.8 28,68.8ZM13.2,59.8C11.8,59.8 10.7,60.9 10.7,62.3L10.7,63.3C10.7,64.7 11.8,65.8 13.2,65.8L28,65.8C29.4,65.8 30.5,64.7 30.5,63.3L30.5,62.3C30.5,60.9 29.4,59.8 28,59.8L13.2,59.8Z" style="fill:white;fill-rule:nonzero;"/>
            <path d="M28,60L10.4,60C7.4,60 4.9,57.6 4.9,54.5L4.9,53.5C4.9,50.5 7.3,48 10.4,48L28,48C31,48 33.5,50.4 33.5,53.5L33.5,54.5C33.4,57.5 31,60 28,60ZM10.4,51C9,51 7.9,52.1 7.9,53.5L7.9,54.5C7.9,55.9 9,57 10.4,57L28,57C29.4,57 30.5,55.9 30.5,54.5L30.5,53.5C30.5,52.1 29.4,51 28,51L10.4,51Z" style="fill:white;fill-rule:nonzero;"/>
            <path d="M28.1,50.9L10.5,50.9C7.5,50.9 5,48.5 5,45.4L5,44.4C5,41.4 7.4,38.9 10.5,38.9L28.1,38.9C31.1,38.9 33.6,41.3 33.6,44.4L33.6,45.4C33.6,48.4 31.1,50.9 28.1,50.9ZM10.5,41.9C9.1,41.9 8,43 8,44.4L8,45.4C8,46.8 9.1,47.9 10.5,47.9L28.1,47.9C29.5,47.9 30.6,46.8 30.6,45.4L30.6,44.4C30.6,43 29.5,41.9 28.1,41.9L10.5,41.9Z" style="fill:white;fill-rule:nonzero;"/>
            <path d="M63.4,40.1C62.8,40.1 62.2,39.7 62,39.1L57.2,26.3C55.6,23.4 52.8,21.2 49.6,20.3L42,18.1C39.8,17.5 37.7,16.3 36.1,14.6L26.5,5C25.9,4.4 25.9,3.5 26.5,2.9C27.1,2.3 28,2.3 28.6,2.9L38.2,12.5C39.5,13.8 41.1,14.7 42.9,15.2L50.5,17.4C54.5,18.5 57.9,21.3 59.9,24.9C59.9,25 60,25 60,25.1L64.8,38C65.1,38.8 64.7,39.6 63.9,39.9C63.8,40.1 63.6,40.1 63.4,40.1Z" style="fill:white;fill-rule:nonzero;"/>
            <path d="M16.2,41.4C15.5,41.4 14.8,40.9 14.7,40.1L14,34.3C13.8,32.8 13.1,31.4 12,30.3L1.6,19.8C1,19.2 1,18.3 1.6,17.7C2.2,17.1 3.1,17.1 3.7,17.7L14.2,28.2C15.7,29.7 16.7,31.8 17,33.9L17.7,39.7C17.8,40.5 17.2,41.2 16.4,41.3C16.3,41.4 16.2,41.4 16.2,41.4Z" style="fill:white;fill-rule:nonzero;"/>
            <path d="M77.1,98.5C76.7,98.5 76.3,98.4 76.1,98.1L69.7,91.7C68.7,90.7 67.2,90.3 65.8,90.8L60.8,92.5C59.4,93 57.8,93 56.4,92.5L49.9,90.2C49.1,89.9 48.7,89.1 49,88.3C49.3,87.5 50.1,87.1 50.9,87.4L57.4,89.7C58.2,90 59.1,90 59.9,89.7L64.9,88C67.3,87.2 70,87.8 71.8,89.6L78.2,96C78.8,96.6 78.8,97.5 78.2,98.1C77.8,98.3 77.5,98.5 77.1,98.5Z" style="fill:white;fill-rule:nonzero;"/>
        </g>
        <g transform="matrix(1,0,0,1,-25,-25)">
            <path d="M74.619,-0.191C115.96,-0.191 149.524,33.373 149.524,74.714C149.524,116.055 115.96,149.619 74.619,149.619C33.278,149.619 -0.286,116.055 -0.286,74.714C-0.286,33.373 33.278,-0.191 74.619,-0.191ZM74.619,2.309C114.58,2.309 147.024,34.753 147.024,74.714C147.024,114.675 114.58,147.119 74.619,147.119C34.658,147.119 2.214,114.675 2.214,74.714C2.214,34.753 34.658,2.309 74.619,2.309Z" style="fill:white;"/>
        </g>
    </g>
</svg>
