<svg xmlns="http://www.w3.org/2000/svg" xml:space="preserve" x="0" y="0" style="enable-background:new 0 0 256 256" version="1.1" viewBox="0 0 256 256"><style>.st1{fill:#fff}</style><circle cx="128" cy="128" r="125" style="fill:#ed6f00"/><circle cx="101.4" cy="102.1" r="66.4" class="st1" transform="rotate(-84 101.4 102.1)"/><path d="M198.9 216.2c-3.4 0-6.6-1.3-9-3.7l-35.5-35.3a3.6 3.6 0 0 1-1.1-2.5c0-.9.4-1.9 1-2.5l17.4-17.4a3.6 3.6 0 0 1 5.1 0l35.3 35.3a12.3 12.3 0 0 1-.1 18.1l-4.1 4.3a12.6 12.6 0 0 1-9 3.7zm-37-41.6 33 32.8a5.9 5.9 0 0 0 8 0l4.1-4.4a5.7 5.7 0 0 0 1.8-4c0-1.5-.6-2.9-1.7-3.9l-32.9-32.8-12.3 12.3z" class="st1"/><path d="M177.2 177.6c-.9 0-1.8-.3-2.5-1a3.6 3.6 0 0 1 0-5.1l6.9-6.9a3.6 3.6 0 0 1 5.1 0 3.6 3.6 0 0 1 0 5.1l-6.9 6.9c-.7.6-1.7 1-2.6 1zm-20.4-16.9c-.9 0-1.9-.4-2.6-1.1l-8.4-8.6a3.5 3.5 0 0 1 .1-5.1 3.5 3.5 0 0 1 5.1.1l8.4 8.6a3.5 3.5 0 0 1-.1 5.1c-.7.7-1.6 1-2.5 1z" class="st1"/><path d="M101.4 146.2a44.1 44.1 0 1 1 0-88.2 44.1 44.1 0 0 1 0 88.2z" style="fill:none;stroke:#ed6f00;stroke-width:7.7709;stroke-miterlimit:10"/><path d="M83.7 78.4a35.6 35.6 0 0 1 34.6 0c.3.2.6.2.9.2.7 0 1.4-.4 1.7-1.1.2-.5.3-1 .1-1.5-.2-.5-.5-.9-1-1.2a40.4 40.4 0 0 0-38.3 0 2 2 0 0 0-.8 2.7c.6 1 1.8 1.4 2.8.9z"/><path d="M129.2 91.9a32 32 0 0 0-11.9-10.3 36.9 36.9 0 0 0-32.7 0 32.4 32.4 0 0 0-12 10.4 2 2 0 0 0 .5 2.7c.3.2.7.3 1.1.3.7 0 1.3-.3 1.5-.8A30 30 0 0 1 86.2 85a32.4 32.4 0 0 1 29.1 0c4.2 2.1 7.7 5.2 10.5 9.1a2 2 0 0 0 2.7.5c.4-.3.7-.8.8-1.3.3-.5.2-1-.1-1.4z"/><path d="M89.6 122.1a23.8 23.8 0 0 1-2.9-11.9c0-7.4 6.4-13.4 14.2-13.4 7.8 0 14.2 6 14.2 13.4 0 1.1.9 2 2 2a2 2 0 0 0 2-2c0-9.5-8.1-17.3-18.2-17.3-10 0-18.2 7.8-18.2 17.3a29.3 29.3 0 0 0 9.7 22.2c.3.4.9.6 1.4.6.5 0 1-.2 1.4-.6.7-.8.7-2 0-2.8-2.4-2.6-3.7-4-5.6-7.5z"/><path d="m119.5 122.9-3.2.3a13.3 13.3 0 0 1-13.7-13 2 2 0 0 0-2-2 2 2 0 0 0-2 2 17.2 17.2 0 0 0 17.5 17c.3 0 2 0 3.9-.4.5-.1 1-.4 1.3-.8.3-.4.4-.9.3-1.4-.1-.5-.4-1-.8-1.3-.2-.4-.7-.5-1.3-.4z"/><path d="M100.8 85.2a26.4 26.4 0 0 0-23.9 14.7c-1.4 3-2.2 6.5-2.2 10.3 0 4.3.8 8.4 2.3 12.6.2.5.5.9 1 1.1.5.2 1 .2 1.5.1.5-.2.9-.5 1.1-1 .2-.5.2-1 .1-1.5-1.9-5-2.1-8.8-2.1-11.2 0-3.2.6-6.1 1.8-8.6a22.4 22.4 0 0 1 20.4-12.6c12.3 0 22.4 9.4 22.4 21 0 3.1-2.8 5.7-6.1 5.7-3.4 0-6.1-2.6-6.1-5.7 0-5.3-4.5-9.6-10.1-9.6s-10.1 4.3-10.1 9.6c0 6.3 2.5 12.2 6.9 16.7a25 25 0 0 0 11.9 6.7l.5.1a2 2 0 0 0 1.9-1.5c.1-.5.1-1-.2-1.5-.3-.4-.7-.8-1.2-.9a21.5 21.5 0 0 1-10.1-5.7 19.4 19.4 0 0 1-5.7-13.9c0-3.1 2.8-5.7 6.1-5.7 3.4 0 6.1 2.6 6.1 5.7 0 5.3 4.5 9.6 10.1 9.6a10 10 0 0 0 10.1-9.6 25.8 25.8 0 0 0-26.4-24.9z"/></svg>